<?xml version="1.0" standalone="no"?><!DOCTYPE svg PUBLIC "-//W3C//DTD SVG 1.1//EN" "http://www.w3.org/Graphics/SVG/1.1/DTD/svg11.dtd"><svg t="1636810317259" class="icon" viewBox="0 0 1024 1024" version="1.1" xmlns="http://www.w3.org/2000/svg" p-id="25723" xmlns:xlink="http://www.w3.org/1999/xlink" width="120" height="120"><defs><style type="text/css"></style></defs><path d="M817.47 817.47C735.878 899.064 627.39 944 512 944c-115.392 0-223.876-44.936-305.47-126.53C124.936 735.878 80 627.39 80 512c0-115.392 44.936-223.876 126.53-305.47C288.124 124.936 396.608 80 512 80c115.39 0 223.878 44.936 305.47 126.53C899.064 288.124 944 396.608 944 512c0 115.39-44.936 223.878-126.53 305.47zM512 152c-86.334 0-165.66 30.56-227.752 81.414l87.206 87.206-50.834 50.834-87.206-87.206C182.56 346.34 152 425.666 152 512c0 198.504 161.496 360 360 360 86.334 0 165.66-30.56 227.752-81.416l-88.206-88.204 50.834-50.834 88.204 88.206C841.44 677.66 872 598.334 872 512c0-198.504-161.496-360-360-360z m181.994 426.802c0 53.998-42.4 89.598-102.4 89.598-64.398 0-98.798-39.6-98.798-82.798 0-37.2 22-64 52.4-79.2v-1.2c-28-15.6-42.8-40.798-42.8-66.398 0-50 41.2-82 93.598-82 60 0 88.4 38 88.4 76 0 24.4-13.6 51.198-44.4 67.998v0.8c29.6 13.6 54 39.6 54 77.2z m-100-182.398c-25.998 0-35.998 20.4-35.998 39.6 0 23.2 16.798 39.198 40.398 47.998 16.8-6.8 30.8-25.598 30.8-45.998 0-20.8-10-41.6-35.2-41.6z m-5.6 129.998c-22.798 8.4-36.398 29.6-36.398 53.6 0 25.598 15.6 47.998 41.198 47.998 26.8 0 41.6-20.8 41.6-44.398 0-29.6-20-48.4-46.4-57.2z m-191.196-111.998h-0.8l-51.998 27.2-12.8-42.4 73.598-37.6h49.6V664h-57.6V414.404z" p-id="25724" fill="#8a8a8a"></path></svg>