<svg t="1649073495850" class="icon" viewBox="0 0 1024 1024" version="1.1" xmlns="http://www.w3.org/2000/svg" p-id="6683"><path d="M768 213.333333h42.666667v42.666667a42.666667 42.666667 0 0 0 85.333333 0V213.333333h42.666667a42.666667 42.666667 0 0 0 0-85.333333h-42.666667V85.333333a42.666667 42.666667 0 0 0-85.333333 0v42.666667h-42.666667a42.666667 42.666667 0 0 0 0 85.333333zM298.666667 298.666667v426.666666a42.666667 42.666667 0 0 0 85.333333 0V298.666667a42.666667 42.666667 0 0 0-85.333333 0z m622.933333 85.333333a42.666667 42.666667 0 0 0-33.28 50.346667 384 384 0 1 1-298.666667-298.666667 42.666667 42.666667 0 1 0 17.066667-85.333333A460.8 460.8 0 0 0 512 42.666667a469.333333 469.333333 0 1 0 469.333333 469.333333 460.8 460.8 0 0 0-9.386666-93.866667A42.666667 42.666667 0 0 0 921.6 384zM469.333333 384v42.666667a128 128 0 0 0 33.28 85.333333 128 128 0 0 0-33.28 85.333333v42.666667a128 128 0 0 0 128 128h42.666667a128 128 0 0 0 128-128v-42.666667a128 128 0 0 0-33.28-85.333333 128 128 0 0 0 33.28-85.333333V384a128 128 0 0 0-128-128h-42.666667a128 128 0 0 0-128 128z m213.333334 256a42.666667 42.666667 0 0 1-42.666667 42.666667h-42.666667a42.666667 42.666667 0 0 1-42.666666-42.666667v-42.666667a42.666667 42.666667 0 0 1 42.666666-42.666666h42.666667a42.666667 42.666667 0 0 1 42.666667 42.666666z m0-256v42.666667a42.666667 42.666667 0 0 1-42.666667 42.666666h-42.666667a42.666667 42.666667 0 0 1-42.666666-42.666666V384a42.666667 42.666667 0 0 1 42.666666-42.666667h42.666667a42.666667 42.666667 0 0 1 42.666667 42.666667z" p-id="6684" fill="#d66e9e"></path></svg>