<?xml version="1.0" standalone="no"?><!DOCTYPE svg PUBLIC "-//W3C//DTD SVG 1.1//EN" "http://www.w3.org/Graphics/SVG/1.1/DTD/svg11.dtd"><svg t="1636810490798" class="icon" viewBox="0 0 1024 1024" version="1.1" xmlns="http://www.w3.org/2000/svg" p-id="27093" xmlns:xlink="http://www.w3.org/1999/xlink" width="120" height="120"><defs><style type="text/css"></style></defs><path d="M832.294214 630.898991C832.294214 665.713055 861.013185 694.848887 896.145583 694.848887 931.796698 694.848887 959.99692 665.713055 959.99692 630.898991L959.99692 384.407981C959.99692 349.081952 931.796698 321.016609 896.145583 321.016609 861.013185 321.016609 832.294214 349.081952 832.294214 384.407981L832.294214 630.898991 832.294214 630.898991 832.294214 630.898991ZM604.051591 175.430538C604.051591 158.768188 618.387493 145.270777 635.411376 145.270777 653.001143 145.270777 667.337044 158.768188 667.337044 175.430538 667.337044 192.558324 653.001143 206.102295 635.411376 206.102295 618.387493 206.102295 604.051591 192.558324 604.051591 175.430538L604.051591 175.430538 604.051591 175.430538ZM361.425867 175.430538C361.425867 158.768188 375.243052 145.270777 392.266935 145.270777 409.856702 145.270777 423.673855 158.768188 423.673855 175.430538 423.673855 192.558324 409.856702 206.102295 392.266935 206.102295 375.243052 206.102295 361.425867 192.558324 361.425867 175.430538L361.425867 175.430538 361.425867 175.430538ZM229.997715 774.390644C229.997715 801.432026 251.831677 823.260644 280.031899 823.260644L336.432375 823.260644 336.432375 960.562068C336.432375 994.864168 364.066713 1024 400.283712 1024 434.850226 1024 464.087913 994.864168 464.087913 960.562068L464.087913 823.260644 563.071649 823.260644 563.071649 960.562068C563.071649 994.864168 590.187238 1024 626.404269 1024 662.055384 1024 690.255606 994.864168 690.255606 960.562068L690.255606 823.260644 746.656083 823.260644C774.809137 823.260644 796.643099 801.432026 796.643099 774.390644L796.643099 322.552534 229.997715 322.552534 229.997715 774.390644 229.997715 774.390644 229.997715 774.390644ZM795.605634 283.037638C787.070109 197.77112 729.585032 126.513978 646.587715 89.093531L698.743964 14.76457C702.186468 9.877564 701.431946 3.827014 697.140615 1.732564 692.896452-0.82729 688.133541 0.708635 684.360927 4.850943L629.563832 81.832845C592.87522 68.847399 554.017407 60.516224 512 60.516224 469.982593 60.516224 430.040147 68.847399 393.870284 81.832845L340.157821 4.850943C336.432375 0.708635 331.622296-1.897779 327.378101 1.732564 323.133938 4.338978 321.813532 9.877564 325.256036 14.76457L377.931034 89.093531C294.933716 127.584467 236.411143 197.259156 228.96025 283.037638L795.605634 283.037638 795.605634 283.037638 795.605634 283.037638ZM64.00308 630.898991C64.00308 665.713055 91.684586 694.848887 127.854417 694.848887 162.420931 694.848887 191.705786 665.713055 191.705786 630.898991L191.705786 384.407981C191.705786 349.081952 162.420931 321.016609 127.854417 321.016609 91.684586 321.016609 64.00308 349.081952 64.00308 384.407981L64.00308 630.898991 64.00308 630.898991 64.00308 630.898991Z" p-id="27094" fill="#8a8a8a"></path></svg>